<svg width="335" height="69" viewBox="0 0 335 69" fill="none" xmlns="http://www.w3.org/2000/svg">
<g filter="url(#filter0_d)">
<path d="M42.48 4.24V10.16H27.28V60H20V10.16H4.72V4.24H42.48ZM48.7213 37.92C48.7213 33.44 49.6279 29.52 51.4413 26.16C53.2546 22.7467 55.7346 20.1067 58.8813 18.24C62.0813 16.3733 65.6279 15.44 69.5213 15.44C73.3613 15.44 76.6946 16.2667 79.5213 17.92C82.3479 19.5733 84.4546 21.6533 85.8413 24.16V16.16H93.2013V60H85.8413V51.84C84.4013 54.4 82.2413 56.5333 79.3613 58.24C76.5346 59.8933 73.2279 60.72 69.4413 60.72C65.5479 60.72 62.0279 59.76 58.8813 57.84C55.7346 55.92 53.2546 53.2267 51.4413 49.76C49.6279 46.2933 48.7213 42.3467 48.7213 37.92ZM85.8413 38C85.8413 34.6933 85.1746 31.8133 83.8413 29.36C82.5079 26.9067 80.6946 25.04 78.4013 23.76C76.1613 22.4267 73.6813 21.76 70.9613 21.76C68.2413 21.76 65.7613 22.4 63.5213 23.68C61.2813 24.96 59.4946 26.8267 58.1613 29.28C56.8279 31.7333 56.1613 34.6133 56.1613 37.92C56.1613 41.28 56.8279 44.2133 58.1613 46.72C59.4946 49.1733 61.2813 51.0667 63.5213 52.4C65.7613 53.68 68.2413 54.32 70.9613 54.32C73.6813 54.32 76.1613 53.68 78.4013 52.4C80.6946 51.0667 82.5079 49.1733 83.8413 46.72C85.1746 44.2133 85.8413 41.3067 85.8413 38ZM121.024 60.72C117.664 60.72 114.65 60.16 111.984 59.04C109.317 57.8667 107.21 56.2667 105.664 54.24C104.117 52.16 103.264 49.7867 103.104 47.12H110.624C110.837 49.3067 111.85 51.0933 113.664 52.48C115.53 53.8667 117.957 54.56 120.944 54.56C123.717 54.56 125.904 53.9467 127.504 52.72C129.104 51.4933 129.904 49.9467 129.904 48.08C129.904 46.16 129.05 44.7467 127.344 43.84C125.637 42.88 122.997 41.9467 119.424 41.04C116.17 40.1867 113.504 39.3333 111.424 38.48C109.397 37.5733 107.637 36.2667 106.144 34.56C104.704 32.8 103.984 30.5067 103.984 27.68C103.984 25.44 104.65 23.3867 105.984 21.52C107.317 19.6533 109.21 18.1867 111.664 17.12C114.117 16 116.917 15.44 120.064 15.44C124.917 15.44 128.837 16.6667 131.824 19.12C134.81 21.5733 136.41 24.9333 136.624 29.2H129.344C129.184 26.9067 128.25 25.0667 126.544 23.68C124.89 22.2933 122.65 21.6 119.824 21.6C117.21 21.6 115.13 22.16 113.584 23.28C112.037 24.4 111.264 25.8667 111.264 27.68C111.264 29.12 111.717 30.32 112.624 31.28C113.584 32.1867 114.757 32.9333 116.144 33.52C117.584 34.0533 119.557 34.6667 122.064 35.36C125.21 36.2133 127.77 37.0667 129.744 37.92C131.717 38.72 133.397 39.9467 134.784 41.6C136.224 43.2533 136.97 45.4133 137.024 48.08C137.024 50.48 136.357 52.64 135.024 54.56C133.69 56.48 131.797 58 129.344 59.12C126.944 60.1867 124.17 60.72 121.024 60.72ZM171.781 60L154.581 40.64V60H147.301V0.799999H154.581V35.6L171.461 16.16H181.621L160.981 38L181.701 60H171.781ZM225.753 20.56C225.753 25.2 224.153 29.0667 220.953 32.16C217.806 35.2 212.979 36.72 206.473 36.72H195.753V60H188.473V4.24H206.473C212.766 4.24 217.539 5.76 220.793 8.8C224.099 11.84 225.753 15.76 225.753 20.56ZM206.473 30.72C210.526 30.72 213.513 29.84 215.433 28.08C217.353 26.32 218.313 23.8133 218.313 20.56C218.313 13.68 214.366 10.24 206.473 10.24H195.753V30.72H206.473ZM232.081 37.92C232.081 33.44 232.987 29.52 234.801 26.16C236.614 22.7467 239.094 20.1067 242.241 18.24C245.441 16.3733 248.987 15.44 252.881 15.44C256.721 15.44 260.054 16.2667 262.881 17.92C265.707 19.5733 267.814 21.6533 269.201 24.16V16.16H276.561V60H269.201V51.84C267.761 54.4 265.601 56.5333 262.721 58.24C259.894 59.8933 256.587 60.72 252.801 60.72C248.907 60.72 245.387 59.76 242.241 57.84C239.094 55.92 236.614 53.2267 234.801 49.76C232.987 46.2933 232.081 42.3467 232.081 37.92ZM269.201 38C269.201 34.6933 268.534 31.8133 267.201 29.36C265.867 26.9067 264.054 25.04 261.761 23.76C259.521 22.4267 257.041 21.76 254.321 21.76C251.601 21.76 249.121 22.4 246.881 23.68C244.641 24.96 242.854 26.8267 241.521 29.28C240.187 31.7333 239.521 34.6133 239.521 37.92C239.521 41.28 240.187 44.2133 241.521 46.72C242.854 49.1733 244.641 51.0667 246.881 52.4C249.121 53.68 251.601 54.32 254.321 54.32C257.041 54.32 259.521 53.68 261.761 52.4C264.054 51.0667 265.867 49.1733 267.201 46.72C268.534 44.2133 269.201 41.3067 269.201 38ZM286.143 37.92C286.143 33.44 287.05 29.52 288.863 26.16C290.676 22.7467 293.156 20.1067 296.303 18.24C299.503 16.3733 303.076 15.44 307.023 15.44C310.436 15.44 313.61 16.24 316.543 17.84C319.476 19.3867 321.716 21.44 323.263 24V0.799999H330.623V60H323.263V51.76C321.823 54.3733 319.69 56.5333 316.863 58.24C314.036 59.8933 310.73 60.72 306.943 60.72C303.05 60.72 299.503 59.76 296.303 57.84C293.156 55.92 290.676 53.2267 288.863 49.76C287.05 46.2933 286.143 42.3467 286.143 37.92ZM323.263 38C323.263 34.6933 322.596 31.8133 321.263 29.36C319.93 26.9067 318.116 25.04 315.823 23.76C313.583 22.4267 311.103 21.76 308.383 21.76C305.663 21.76 303.183 22.4 300.943 23.68C298.703 24.96 296.916 26.8267 295.583 29.28C294.25 31.7333 293.583 34.6133 293.583 37.92C293.583 41.28 294.25 44.2133 295.583 46.72C296.916 49.1733 298.703 51.0667 300.943 52.4C303.183 53.68 305.663 54.32 308.383 54.32C311.103 54.32 313.583 53.68 315.823 52.4C318.116 51.0667 319.93 49.1733 321.263 46.72C322.596 44.2133 323.263 41.3067 323.263 38Z" fill="#777ACE"/>
</g>
<defs>
<filter id="filter0_d" x="0.719971" y="0.799988" width="333.903" height="67.92" filterUnits="userSpaceOnUse" color-interpolation-filters="sRGB">
<feFlood flood-opacity="0" result="BackgroundImageFix"/>
<feColorMatrix in="SourceAlpha" type="matrix" values="0 0 0 0 0 0 0 0 0 0 0 0 0 0 0 0 0 0 127 0"/>
<feOffset dy="4"/>
<feGaussianBlur stdDeviation="2"/>
<feColorMatrix type="matrix" values="0 0 0 0 0 0 0 0 0 0 0 0 0 0 0 0 0 0 0.25 0"/>
<feBlend mode="normal" in2="BackgroundImageFix" result="effect1_dropShadow"/>
<feBlend mode="normal" in="SourceGraphic" in2="effect1_dropShadow" result="shape"/>
</filter>
</defs>
</svg>
